<svg width="30" height="54" viewBox="0 0 30 54" fill="none" xmlns="http://www.w3.org/2000/svg">
<g clip-path="url(#clip0_0_2620)">
<path d="M15 22.5C12.2805 22.5 9.62209 23.3064 7.36092 24.8173C5.09974 26.3282 3.33737 28.4756 2.29666 30.9881C1.25596 33.5006 0.983662 36.2653 1.51421 38.9325C2.04476 41.5997 3.35432 44.0497 5.27729 45.9727C7.20026 47.8957 9.65028 49.2053 12.3175 49.7358C14.9848 50.2663 17.7494 49.994 20.2619 48.9533C22.7744 47.9126 24.9218 46.1503 26.4327 43.8891C27.9436 41.6279 28.75 38.9695 28.75 36.25C28.75 32.6033 27.3013 29.1059 24.7227 26.5273C22.1441 23.9487 18.6467 22.5 15 22.5ZM15 48.35C12.6069 48.35 10.2674 47.6403 8.27761 46.3108C6.28777 44.9812 4.73688 43.0915 3.82106 40.8805C2.90524 38.6695 2.66562 36.2366 3.1325 33.8894C3.59939 31.5422 4.7518 29.3862 6.44401 27.694C8.13623 26.0018 10.2922 24.8494 12.6394 24.3825C14.9866 23.9156 17.4195 24.1552 19.6305 25.0711C21.8415 25.9869 23.7312 27.5378 25.0608 29.5276C26.3904 31.5174 27.1 33.8568 27.1 36.25C27.0963 39.458 25.8203 42.5335 23.5519 44.8019C21.2835 47.0703 18.208 48.3463 15 48.35ZM15 25.25C12.8244 25.25 10.6977 25.8951 8.88873 27.1038C7.07979 28.3125 5.6699 30.0305 4.83733 32.0405C4.00477 34.0505 3.78693 36.2622 4.21137 38.396C4.63581 40.5298 5.68345 42.4898 7.22183 44.0282C8.76021 45.5666 10.7202 46.6142 12.854 47.0386C14.9878 47.4631 17.1995 47.2452 19.2095 46.4127C21.2195 45.5801 22.9375 44.1702 24.1462 42.3613C25.3549 40.5523 26 38.4256 26 36.25C26 34.8055 25.7155 33.3751 25.1627 32.0405C24.6099 30.7059 23.7996 29.4933 22.7782 28.4718C21.7567 27.4504 20.5441 26.6401 19.2095 26.0873C17.8749 25.5345 16.4445 25.25 15 25.25ZM15.474 31.506C15.6396 31.3037 15.8461 31.1386 16.08 31.0216C16.3138 30.9046 16.5698 30.8383 16.831 30.827C16.8523 31.0896 16.8204 31.3538 16.7372 31.6038C16.654 31.8538 16.5213 32.0845 16.347 32.282C16.1954 32.4993 15.9918 32.6752 15.7548 32.7936C15.5177 32.9121 15.2548 32.9693 14.99 32.96C14.9653 32.6973 14.9956 32.4324 15.0789 32.182C15.1622 31.9317 15.2968 31.7015 15.474 31.506ZM18.128 38.984C17.752 39.558 17.321 40.136 16.686 40.136C16.086 40.136 15.878 39.748 15.181 39.748C14.432 39.748 14.205 40.136 13.632 40.136C12.997 40.136 12.563 39.527 12.166 38.959C11.5701 38.0579 11.2382 37.0079 11.208 35.928C11.1812 35.3453 11.3155 34.7665 11.596 34.255C11.7921 33.9079 12.0726 33.616 12.4116 33.4062C12.7505 33.1965 13.1369 33.0757 13.535 33.055C14.144 33.034 14.666 33.491 15.035 33.491C15.6204 33.2992 16.2199 33.1534 16.828 33.055C17.1658 33.0538 17.4986 33.1375 17.7956 33.2984C18.0927 33.4593 18.3445 33.6923 18.528 33.976C18.2219 34.1693 17.9692 34.4362 17.7929 34.7524C17.6166 35.0686 17.5224 35.424 17.519 35.786C17.5296 36.1847 17.6527 36.5722 17.8743 36.9039C18.0959 37.2355 18.4067 37.4976 18.771 37.66C18.6264 38.1319 18.4095 38.5786 18.128 38.984Z" fill="#1D1D1F"/>
</g>
<defs>
<clipPath id="clip0_0_2620">
<rect width="29" height="54" fill="white" transform="translate(0.5)"/>
</clipPath>
</defs>
</svg>
